<svg xmlns="http://www.w3.org/2000/svg" viewBox="0 0 64 64"><path fill="#cae5f3" d="M31.235 3.316 3 15v3a2 2 0 0 0 2 2h54a2 2 0 0 0 2-2v-3L32.765 3.316a2.007 2.007 0 0 0-1.53 0Z"/><path fill="#b5cfe0" d="M8 25h6v26H8zM56 51h-6V25h6z"/><rect width="58" height="5" x="3" y="56" fill="#b5cfe0" rx="2"/><path fill="#b5cfe0" d="M3 15h58v3a2 2 0 0 1-2 2H5a2 2 0 0 1-2-2v-3Z"/><path fill="#e11110" d="M43.345 40.655C43.345 34.39 35.379 24 32 24S20.655 34.39 20.655 40.655a11.345 11.345 0 0 0 22.69 0Z"/><path fill="#f4fbfe" d="M35.571 36.857h-1.428v-1.428A1.429 1.429 0 0 0 32.714 34h-1.428a1.429 1.429 0 0 0-1.429 1.429v1.428h-1.428A1.429 1.429 0 0 0 27 38.286v1.428a1.429 1.429 0 0 0 1.429 1.429h1.428v1.428A1.429 1.429 0 0 0 31.286 44h1.428a1.429 1.429 0 0 0 1.429-1.429v-1.428h1.428A1.429 1.429 0 0 0 37 39.714v-1.428a1.429 1.429 0 0 0-1.429-1.429Z"/><path fill="#cae5f3" d="M6 20h10v3a2 2 0 0 1-2 2H8a2 2 0 0 1-2-2v-3zm2 31h6a2 2 0 0 1 2 2v3H6v-3a2 2 0 0 1 2-2zm40-31h10v3a2 2 0 0 1-2 2h-6a2 2 0 0 1-2-2v-3zm2 31h6a2 2 0 0 1 2 2v3H48v-3a2 2 0 0 1 2-2z"/></svg>